#tb 0: 1/25
#media_type 0: video
#codec_id 0: rawvideo
#dimensions 0: 720x480
#sar 0: 0/1
0,          0,          0,        1,   518400, 0x672279df
0,          1,          1,        1,   518400, 0xb248a762
0,          2,          2,        1,   518400, 0x4399de88
0,          3,          3,        1,   518400, 0x14200d2d
0,          4,          4,        1,   518400, 0x14a704cf
0,          5,          5,        1,   518400, 0xcaac5431
0,          6,          6,        1,   518400, 0x69d77cee
0,          7,          7,        1,   518400, 0x420d5f92
0,          8,          8,        1,   518400, 0x083a357d
0,          9,          9,        1,   518400, 0x01777426
0,         10,         10,        1,   518400, 0x474640e9
0,         11,         11,        1,   518400, 0x3d690eab
0,         12,         12,        1,   518400, 0x58074830
0,         13,         13,        1,   518400, 0x3e3f0fcc
0,         14,         14,        1,   518400, 0x8c72de01
0,         15,         15,        1,   518400, 0xbf0a4f6f
0,         16,         16,        1,   518400, 0xbdea010d
0,         17,         17,        1,   518400, 0x54bdc458
0,         18,         18,        1,   518400, 0xdcd00ed0
0,         19,         19,        1,   518400, 0x64ba9ba9
0,         20,         20,        1,   518400, 0x5c0c6790
0,         21,         21,        1,   518400, 0x178674ed
0,         22,         22,        1,   518400, 0x9ebec8d3
0,         23,         23,        1,   518400, 0x375c5426
0,         24,         24,        1,   518400, 0x19987af8
0,         25,         25,        1,   518400, 0x347ec12c
0,         26,         26,        1,   518400, 0x96856c36
0,         27,         27,        1,   518400, 0xb81264a6
0,         28,         28,        1,   518400, 0xde0a08d6
0,         29,         29,        1,   518400, 0x19cb10be
